<svg width="50" height="46" viewBox="0 0 50 46" fill="none" xmlns="http://www.w3.org/2000/svg">
<path d="M14.7625 14.5888H35.2375M14.7625 21.4138H25M2.81876 24.849C2.81876 28.489 5.37358 31.6604 8.97718 32.1905C11.5457 32.5681 14.1414 32.857 16.7645 33.0527C17.5608 33.1118 18.2888 33.5304 18.7324 34.1925L25 43.595L31.2676 34.1925C31.4875 33.8655 31.779 33.5929 32.12 33.3954C32.461 33.1979 32.8425 33.0807 33.2355 33.0527C35.8407 32.8582 38.4382 32.5706 41.0228 32.1905C44.6264 31.6604 47.1813 28.4913 47.1813 24.8467V11.1558C47.1813 7.51125 44.6264 4.34217 41.0228 3.8121C35.7174 3.0334 30.3622 2.64334 25 2.64502C19.5582 2.64502 14.2074 3.04315 8.97718 3.8121C5.37358 4.34217 2.81876 7.51353 2.81876 11.1558V24.8467V24.849Z" stroke="black" stroke-width="4" stroke-linecap="round" stroke-linejoin="round"/>
</svg>
