<svg width="24" height="24" viewBox="0 0 24 24" fill="none" xmlns="http://www.w3.org/2000/svg">
<path d="M17.25 12C17.25 13.3924 16.6969 14.7278 15.7123 15.7124C14.7277 16.6969 13.3924 17.25 12 17.25C10.6076 17.25 9.27226 16.6969 8.28769 15.7124C7.30313 14.7278 6.75 13.3924 6.75 12C6.75 10.6077 7.30313 9.2723 8.28769 8.28774C9.27226 7.30317 10.6076 6.75005 12 6.75005C13.3924 6.75005 14.7277 7.30317 15.7123 8.28774C16.6969 9.2723 17.25 10.6077 17.25 12ZM17.25 12C17.25 13.9332 18.4248 15.5 19.875 15.5C21.3252 15.5 22.5 13.9332 22.5 12C22.5 9.57082 21.6577 7.21675 20.1166 5.33894C18.5755 3.46113 16.4309 2.17578 14.0484 1.70188C11.6658 1.22798 9.19265 1.59486 7.05027 2.74C4.90789 3.88515 3.22885 5.73771 2.29924 7.98203C1.36963 10.2264 1.24697 12.7236 1.95215 15.0482C2.65734 17.3728 4.14673 19.381 6.16657 20.7306C8.18641 22.0802 10.6117 22.6877 13.0292 22.4496C15.4468 22.2115 17.707 21.1424 19.4247 19.4247M17.25 12V7.62505" stroke="#E0FBFC" stroke-width="3" stroke-linecap="round" stroke-linejoin="round"/>
</svg>
