<svg width="24" height="24" viewBox="0 0 24 24" fill="none" xmlns="http://www.w3.org/2000/svg">
<path d="M16 1.21814V22.7819C16 23.4536 15.419 24 14.7047 24H10.2953C9.58095 24 9 23.4536 9 22.7819V1.21814C9 0.546355 9.58095 0 10.2953 0H14.7047C15.419 0 16 0.546355 16 1.21814ZM15.1733 22.7819V22.3413H13.3819C13.1537 22.3413 12.9685 22.1671 12.9685 21.9525C12.9685 21.7379 13.1537 21.5637 13.3819 21.5637H15.1733V20.6825H14.2638C14.0356 20.6825 13.8504 20.5083 13.8504 20.2937C13.8504 20.0791 14.0356 19.9049 14.2638 19.9049H15.1733V19.0237H13.3819C13.1537 19.0237 12.9685 18.8495 12.9685 18.635C12.9685 18.4204 13.1537 18.2462 13.3819 18.2462H15.1733V17.365H14.2638C14.0356 17.365 13.8504 17.1908 13.8504 16.9762C13.8504 16.7616 14.0356 16.5874 14.2638 16.5874H15.1733V15.7062H13.3819C13.1537 15.7062 12.9685 15.532 12.9685 15.3174C12.9685 15.1028 13.1537 14.9286 13.3819 14.9286H15.1733V14.0474H14.2638C14.0356 14.0474 13.8504 13.8732 13.8504 13.6586C13.8504 13.444 14.0356 13.2699 14.2638 13.2699H15.1733V12.3886H13.3819C13.1537 12.3886 12.9685 12.2144 12.9685 11.9999C12.9685 11.7853 13.1537 11.6111 13.3819 11.6111H15.1733V10.73H14.2638C14.0356 10.73 13.8504 10.5558 13.8504 10.3412C13.8504 10.1266 14.0356 9.95245 14.2638 9.95245H15.1733V9.07123H13.3819C13.1537 9.07123 12.9685 8.89705 12.9685 8.68245C12.9685 8.46786 13.1537 8.29368 13.3819 8.29368H15.1733V7.41246H14.2638C14.0356 7.41246 13.8504 7.23827 13.8504 7.02368C13.8504 6.80909 14.0356 6.6349 14.2638 6.6349H15.1733V5.75369H13.3819C13.1537 5.75369 12.9685 5.5795 12.9685 5.36491C12.9685 5.15032 13.1537 4.97613 13.3819 4.97613H15.1733V4.09501H14.2638C14.0356 4.09501 13.8504 3.92082 13.8504 3.70623C13.8504 3.49164 14.0356 3.31745 14.2638 3.31745H15.1733V2.43628H13.3819C13.1537 2.43628 12.9685 2.2621 12.9685 2.0475C12.9685 1.83291 13.1537 1.65873 13.3819 1.65873H15.1733V1.21814C15.1733 0.97502 14.9632 0.777557 14.7048 0.777557H10.2953C10.0368 0.777557 9.82684 0.975067 9.82684 1.21814V22.7819C9.82684 23.025 10.0369 23.2224 10.2953 23.2224H14.7048C14.9632 23.2224 15.1733 23.0249 15.1733 22.7819Z" fill="#E0FBFC"/>
</svg>
