<svg width="28" height="28" viewBox="0 0 28 28" fill="none" xmlns="http://www.w3.org/2000/svg">
<path d="M19.25 12.25V7.875C19.25 6.48261 18.6969 5.14726 17.7123 4.16269C16.7277 3.17812 15.3924 2.625 14 2.625C12.6076 2.625 11.2723 3.17812 10.2877 4.16269C9.30312 5.14726 8.75 6.48261 8.75 7.875V12.25M7.875 25.375H20.125C20.8212 25.375 21.4889 25.0984 21.9812 24.6062C22.4734 24.1139 22.75 23.4462 22.75 22.75V14.875C22.75 14.1788 22.4734 13.5111 21.9812 13.0188C21.4889 12.5266 20.8212 12.25 20.125 12.25H7.875C7.17881 12.25 6.51113 12.5266 6.01884 13.0188C5.52656 13.5111 5.25 14.1788 5.25 14.875V22.75C5.25 23.4462 5.52656 24.1139 6.01884 24.6062C6.51113 25.0984 7.17881 25.375 7.875 25.375Z" stroke="#E0FBFC" stroke-width="3" stroke-linecap="round" stroke-linejoin="round"/>
</svg>
