<svg width="28" height="28" viewBox="0 0 28 28" fill="none" xmlns="http://www.w3.org/2000/svg">
<path d="M18.375 7C18.375 8.16032 17.9141 9.27312 17.0936 10.0936C16.2731 10.9141 15.1603 11.375 14 11.375C12.8397 11.375 11.7269 10.9141 10.9064 10.0936C10.0859 9.27312 9.62499 8.16032 9.62499 7C9.62499 5.83968 10.0859 4.72688 10.9064 3.90641C11.7269 3.08594 12.8397 2.625 14 2.625C15.1603 2.625 16.2731 3.08594 17.0936 3.90641C17.9141 4.72688 18.375 5.83968 18.375 7ZM5.25116 23.471C5.28865 21.1754 6.22689 18.9865 7.86353 17.3764C9.50018 15.7663 11.7041 14.8639 14 14.8639C16.2959 14.8639 18.4998 15.7663 20.1365 17.3764C21.7731 18.9865 22.7113 21.1754 22.7488 23.471C20.0041 24.7296 17.0195 25.3791 14 25.375C10.878 25.375 7.91466 24.6937 5.25116 23.471Z" stroke="#E0FBFC" stroke-width="3" stroke-linecap="round" stroke-linejoin="round"/>
</svg>
