<svg width="22" height="26" viewBox="0 0 22 26" fill="none" xmlns="http://www.w3.org/2000/svg">
<path d="M15.6875 5.5C15.6875 6.7432 15.1936 7.93549 14.3146 8.81456C13.4355 9.69364 12.2432 10.1875 11 10.1875C9.7568 10.1875 8.56452 9.69364 7.68544 8.81456C6.80636 7.93549 6.3125 6.7432 6.3125 5.5C6.3125 4.2568 6.80636 3.06451 7.68544 2.18544C8.56452 1.30636 9.7568 0.8125 11 0.8125C12.2432 0.8125 13.4355 1.30636 14.3146 2.18544C15.1936 3.06451 15.6875 4.2568 15.6875 5.5ZM1.62625 23.1475C1.66642 20.6879 2.67167 18.3427 4.42522 16.6176C6.17877 14.8924 8.54011 13.9256 11 13.9256C13.4599 13.9256 15.8212 14.8924 17.5748 16.6176C19.3283 18.3427 20.3336 20.6879 20.3738 23.1475C17.433 24.496 14.2352 25.1919 11 25.1875C7.655 25.1875 4.48 24.4575 1.62625 23.1475Z" stroke="#E0FBFC" stroke-width="1.5" stroke-linecap="round" stroke-linejoin="round"/>
</svg>
