<svg width="24" height="24" viewBox="0 0 24 24" fill="none" xmlns="http://www.w3.org/2000/svg">
<g clip-path="url(#clip0_20_130)">
<path d="M7.61088 8.09331C7.69251 8.14115 7.78386 8.1651 7.87532 8.1651C7.96332 8.1651 8.05144 8.14288 8.13081 8.09843C9.30685 7.43982 10.6448 7.09166 12 7.09166C13.3553 7.09166 14.6932 7.43977 15.8692 8.09843C16.0311 8.18911 16.229 8.18717 16.3892 8.09336C16.5493 7.9995 16.6476 7.82782 16.6476 7.64224V5.49499C16.6476 3.67969 15.1708 2.20282 13.3555 2.20282H10.6446C8.82927 2.20282 7.3524 3.67969 7.3524 5.49499V7.64229C7.35235 7.82777 7.45076 7.9995 7.61088 8.09331ZM8.39818 5.49489C8.39818 4.25621 9.40589 3.24855 10.6445 3.24855H13.3554C14.5941 3.24855 15.6018 4.25626 15.6018 5.49489V6.79888C14.4717 6.30436 13.2422 6.04583 12 6.04583C10.7578 6.04583 9.52831 6.30436 8.39818 6.79894V5.49489Z" fill="#E0FBFC"/>
<path d="M18.8504 9.22183V5.4949C18.8504 2.46502 16.3853 0 13.3554 0H10.6445C7.61464 0 5.14962 2.46502 5.14962 5.4949V9.22177C3.77675 10.8417 3.02292 12.8937 3.02292 15.0229C3.02292 19.9729 7.05 24 12 24C16.9499 24 20.977 19.9729 20.977 15.0229C20.9771 12.8937 20.2232 10.8417 18.8504 9.22183ZM12 22.9542C7.62667 22.9542 4.06875 19.3962 4.06875 15.0229C4.06875 13.0825 4.7773 11.2148 6.06383 9.76378C6.14865 9.66814 6.1955 9.54473 6.1955 9.41687V5.4949C6.1955 3.0417 8.19131 1.04583 10.6446 1.04583H13.3555C15.8087 1.04583 17.8046 3.0417 17.8046 5.4949V9.41687C17.8046 9.54473 17.8514 9.66814 17.9363 9.76378C19.2228 11.2148 19.9313 13.0825 19.9313 15.0229C19.9312 19.3962 16.3733 22.9542 12 22.9542Z" fill="#E0FBFC"/>
<path d="M13.821 8.01785C13.2293 7.86463 12.6166 7.78693 12 7.78693C11.7112 7.78693 11.4771 8.02104 11.4771 8.30984C11.4771 8.59865 11.7112 8.83276 12 8.83276C12.5283 8.83276 13.0527 8.89922 13.5588 9.03026C13.6028 9.04166 13.6469 9.0471 13.6903 9.0471C13.9229 9.0471 14.1351 8.89075 14.1962 8.65518C14.2685 8.37562 14.1005 8.09027 13.821 8.01785Z" fill="#E0FBFC"/>
<path d="M15.8132 8.87079C15.5677 8.71857 15.2454 8.79408 15.0932 9.03954C14.941 9.28494 15.0165 9.60732 15.2619 9.75954C17.1003 10.8998 18.1979 12.8704 18.1979 15.0307C18.1979 15.3195 18.432 15.5536 18.7208 15.5536C19.0096 15.5536 19.2437 15.3195 19.2437 15.0307C19.2438 12.5059 17.9613 10.2031 15.8132 8.87079Z" fill="#E0FBFC"/>
<path d="M12 21.2286C11.2883 21.2286 10.5908 21.1092 9.92688 20.8736C9.6548 20.777 9.3558 20.9193 9.25916 21.1915C9.16258 21.4637 9.30492 21.7626 9.5771 21.8591C10.3536 22.1347 11.1688 22.2744 11.9999 22.2744C12.2887 22.2744 12.5228 22.0403 12.5228 21.7515C12.5228 21.4627 12.2888 21.2286 12 21.2286Z" fill="#E0FBFC"/>
<path d="M8.53697 20.1717C6.82447 19.0157 5.80212 17.0938 5.80212 15.0307C5.80212 14.7419 5.56801 14.5078 5.2792 14.5078C4.9904 14.5078 4.75629 14.7419 4.75629 15.0307C4.75629 17.4418 5.95089 19.6877 7.95182 21.0384C8.04156 21.099 8.14326 21.128 8.24392 21.128C8.41183 21.128 8.57681 21.0473 8.67779 20.8976C8.83937 20.6583 8.77631 20.3332 8.53697 20.1717Z" fill="#E0FBFC"/>
</g>
<defs>
<clipPath id="clip0_20_130">
<rect width="24" height="24" fill="white"/>
</clipPath>
</defs>
</svg>
